<svg xmlns="http://www.w3.org/2000/svg" width="64" height="64" viewBox="0 0 64 64">
  <defs>
    <linearGradient id="bg" x1="0" y1="0" x2="0" y2="1">
      <stop offset="0" stop-color="#fdfefe"/>
      <stop offset="1" stop-color="#d9dde4"/>
    </linearGradient>
  </defs>
  <rect x="6" y="8" width="52" height="48" rx="5" fill="url(#bg)" stroke="#6d7a92" stroke-width="2"/>
  <rect x="12" y="14" width="40" height="10" rx="2" fill="#c1cad6"/>
  <rect x="12" y="28" width="40" height="20" rx="2" fill="#b8c3d2"/>
  <g fill="#eef2f7" stroke="#8a97aa" stroke-width="1">
    <rect x="15" y="31" width="10" height="7"/>
    <rect x="27" y="31" width="10" height="7"/>
    <rect x="39" y="31" width="10" height="7"/>
    <rect x="15" y="40" width="10" height="7"/>
    <rect x="27" y="40" width="10" height="7"/>
    <rect x="39" y="40" width="10" height="7"/>
  </g>
  <circle cx="32" cy="34.5" r="4.3" fill="#141414"/>
  <g stroke="#141414" stroke-width="1.4" stroke-linecap="round">
    <path d="M32 26v4"/>
    <path d="M32 39v4"/>
    <path d="M24 34.5h4"/>
    <path d="M36 34.5h4"/>
    <path d="M26.8 29.3l2.8 2.8"/>
    <path d="M34.4 36.9l2.8 2.8"/>
    <path d="M37.2 29.3l-2.8 2.8"/>
    <path d="M29.6 36.9l-2.8 2.8"/>
  </g>
</svg>
