<svg xmlns="http://www.w3.org/2000/svg" width="64" height="64" viewBox="0 0 64 64">
  <rect x="10" y="13" width="28" height="40" rx="4" fill="#ffffff" stroke="#8ca0ba" stroke-width="2"/>
  <rect x="26" y="8" width="28" height="40" rx="4" fill="#ffffff" stroke="#8ca0ba" stroke-width="2"/>
  <path d="M40 18c0-3 2.5-5.5 5.5-5.5S51 15 51 18c0 3.8-3.5 6.2-5.5 9.1C43.5 24.2 40 21.8 40 18z" fill="#d11b2f"/>
  <path d="M20 42l5 8 5-8 5 8 5-8" fill="none" stroke="#1f47a0" stroke-width="2.4" stroke-linecap="round" stroke-linejoin="round"/>
  <path d="M18 20c0-3 2.5-5.5 5.5-5.5S29 17 29 20c0 3.8-3.5 6.2-5.5 9.1C21.5 26.2 18 23.8 18 20z" fill="#1f47a0"/>
</svg>
